<?xml version="1.0" encoding="utf-8"?>
<!-- Generator: Adobe Illustrator 23.1.0, SVG Export Plug-In . SVG Version: 6.00 Build 0)  -->
<svg version="1.1" id="Layer_1" xmlns="http://www.w3.org/2000/svg" xmlns:xlink="http://www.w3.org/1999/xlink" x="0px" y="0px"
	 viewBox="0 0 504 504" style="enable-background:new 0 0 504 504;" xml:space="preserve">
<style type="text/css">
	.st0{clip-path:url(#SVGID_2_);fill:#FFFFFF;}
	
		.st1{clip-path:url(#SVGID_2_);fill:none;stroke:#FFFFFF;stroke-width:1.07;stroke-linecap:round;stroke-linejoin:round;stroke-miterlimit:10;}
	.st2{clip-path:url(#SVGID_4_);fill:#FFFFFF;}
	.st3{clip-path:url(#SVGID_4_);}
	.st4{fill:#FDE725;}
	.st5{font-family:'MyriadPro-Regular';}
	.st6{font-size:6.89px;}
	.st7{fill:#440154;}
	.st8{fill:#21908C;}
	.st9{clip-path:url(#SVGID_4_);fill:#FDE725;}
	.st10{clip-path:url(#SVGID_4_);fill:#440154;}
	.st11{clip-path:url(#SVGID_4_);fill:#21908C;}
	
		.st12{clip-path:url(#SVGID_4_);fill:none;stroke:#FDE725;stroke-width:0.71;stroke-linecap:round;stroke-linejoin:round;stroke-miterlimit:10;}
	
		.st13{clip-path:url(#SVGID_4_);fill:none;stroke:#440154;stroke-width:0.71;stroke-linecap:round;stroke-linejoin:round;stroke-miterlimit:10;}
	
		.st14{clip-path:url(#SVGID_4_);fill:none;stroke:#21908C;stroke-width:0.71;stroke-linecap:round;stroke-linejoin:round;stroke-miterlimit:10;}
	.st15{clip-path:url(#SVGID_4_);fill:none;stroke:#440154;stroke-width:2.13;stroke-linejoin:round;stroke-miterlimit:10;}
	.st16{clip-path:url(#SVGID_4_);fill:none;stroke:#21908C;stroke-width:2.13;stroke-linejoin:round;stroke-miterlimit:10;}
	.st17{clip-path:url(#SVGID_4_);fill:none;stroke:#FDE725;stroke-width:2.13;stroke-linejoin:round;stroke-miterlimit:10;}
	.st18{font-family:'Helvetica-Oblique';}
	.st19{font-size:11px;}
	.st20{font-family:'Symbol';}
	.st21{font-family:'Helvetica';}
	.st22{clip-path:url(#SVGID_6_);fill:#FFFFFF;}
	.st23{clip-path:url(#SVGID_6_);}
	.st24{clip-path:url(#SVGID_6_);fill:#FDE725;}
	.st25{clip-path:url(#SVGID_6_);fill:#440154;}
	.st26{clip-path:url(#SVGID_6_);fill:#21908C;}
	
		.st27{clip-path:url(#SVGID_6_);fill:none;stroke:#FDE725;stroke-width:0.71;stroke-linecap:round;stroke-linejoin:round;stroke-miterlimit:10;}
	
		.st28{clip-path:url(#SVGID_6_);fill:none;stroke:#440154;stroke-width:0.71;stroke-linecap:round;stroke-linejoin:round;stroke-miterlimit:10;}
	
		.st29{clip-path:url(#SVGID_6_);fill:none;stroke:#21908C;stroke-width:0.71;stroke-linecap:round;stroke-linejoin:round;stroke-miterlimit:10;}
	.st30{clip-path:url(#SVGID_6_);fill:none;stroke:#440154;stroke-width:2.13;stroke-linejoin:round;stroke-miterlimit:10;}
	.st31{clip-path:url(#SVGID_6_);fill:none;stroke:#21908C;stroke-width:2.13;stroke-linejoin:round;stroke-miterlimit:10;}
	.st32{clip-path:url(#SVGID_6_);fill:none;stroke:#FDE725;stroke-width:2.13;stroke-linejoin:round;stroke-miterlimit:10;}
	.st33{clip-path:url(#SVGID_8_);fill:#FFFFFF;}
	.st34{clip-path:url(#SVGID_8_);}
	.st35{clip-path:url(#SVGID_8_);fill:#FDE725;}
	.st36{clip-path:url(#SVGID_8_);fill:#440154;}
	.st37{clip-path:url(#SVGID_8_);fill:#21908C;}
	
		.st38{clip-path:url(#SVGID_8_);fill:none;stroke:#FDE725;stroke-width:0.71;stroke-linecap:round;stroke-linejoin:round;stroke-miterlimit:10;}
	
		.st39{clip-path:url(#SVGID_8_);fill:none;stroke:#440154;stroke-width:0.71;stroke-linecap:round;stroke-linejoin:round;stroke-miterlimit:10;}
	
		.st40{clip-path:url(#SVGID_8_);fill:none;stroke:#21908C;stroke-width:0.71;stroke-linecap:round;stroke-linejoin:round;stroke-miterlimit:10;}
	.st41{clip-path:url(#SVGID_8_);fill:none;stroke:#440154;stroke-width:2.13;stroke-linejoin:round;stroke-miterlimit:10;}
	.st42{clip-path:url(#SVGID_8_);fill:none;stroke:#21908C;stroke-width:2.13;stroke-linejoin:round;stroke-miterlimit:10;}
	.st43{clip-path:url(#SVGID_8_);fill:none;stroke:#FDE725;stroke-width:2.13;stroke-linejoin:round;stroke-miterlimit:10;}
	.st44{clip-path:url(#SVGID_10_);fill:#FFFFFF;}
	.st45{clip-path:url(#SVGID_10_);}
	.st46{clip-path:url(#SVGID_10_);fill:#FDE725;}
	.st47{clip-path:url(#SVGID_10_);fill:#440154;}
	.st48{clip-path:url(#SVGID_10_);fill:#21908C;}
	
		.st49{clip-path:url(#SVGID_10_);fill:none;stroke:#FDE725;stroke-width:0.71;stroke-linecap:round;stroke-linejoin:round;stroke-miterlimit:10;}
	
		.st50{clip-path:url(#SVGID_10_);fill:none;stroke:#440154;stroke-width:0.71;stroke-linecap:round;stroke-linejoin:round;stroke-miterlimit:10;}
	
		.st51{clip-path:url(#SVGID_10_);fill:none;stroke:#21908C;stroke-width:0.71;stroke-linecap:round;stroke-linejoin:round;stroke-miterlimit:10;}
	.st52{clip-path:url(#SVGID_10_);fill:none;stroke:#440154;stroke-width:2.13;stroke-linejoin:round;stroke-miterlimit:10;}
	.st53{clip-path:url(#SVGID_10_);fill:none;stroke:#21908C;stroke-width:2.13;stroke-linejoin:round;stroke-miterlimit:10;}
	.st54{clip-path:url(#SVGID_10_);fill:none;stroke:#FDE725;stroke-width:2.13;stroke-linejoin:round;stroke-miterlimit:10;}
	.st55{clip-path:url(#SVGID_14_);fill:#FFFFFF;}
	
		.st56{clip-path:url(#SVGID_14_);fill:none;stroke:#000000;stroke-width:2.13;stroke-linecap:round;stroke-linejoin:round;stroke-miterlimit:10;}
	.st57{clip-path:url(#SVGID_14_);}
	.st58{fill:#1A1A1A;}
	.st59{font-size:9px;}
	.st60{clip-path:url(#SVGID_22_);fill:#FFFFFF;}
	
		.st61{clip-path:url(#SVGID_22_);fill:none;stroke:#000000;stroke-width:2.13;stroke-linecap:round;stroke-linejoin:round;stroke-miterlimit:10;}
	.st62{clip-path:url(#SVGID_22_);}
	.st63{clip-path:url(#SVGID_30_);fill:#FFFFFF;}
	
		.st64{clip-path:url(#SVGID_30_);fill:none;stroke:#000000;stroke-width:2.13;stroke-linecap:round;stroke-linejoin:round;stroke-miterlimit:10;}
	.st65{clip-path:url(#SVGID_30_);}
	.st66{clip-path:url(#SVGID_38_);fill:#FFFFFF;}
	
		.st67{clip-path:url(#SVGID_38_);fill:none;stroke:#000000;stroke-width:2.13;stroke-linecap:round;stroke-linejoin:round;stroke-miterlimit:10;}
	.st68{clip-path:url(#SVGID_38_);}
	.st69{fill:none;stroke:#000000;stroke-width:1.07;stroke-linejoin:round;stroke-miterlimit:10;}
	.st70{fill:none;stroke:#333333;stroke-width:1.07;stroke-linejoin:round;stroke-miterlimit:10;}
	.st71{font-size:12px;}
	.st72{fill:#FFFFFF;}
	.st73{fill:none;stroke:#440154;stroke-width:0.71;stroke-linecap:round;stroke-linejoin:round;stroke-miterlimit:10;}
	.st74{fill:none;stroke:#440154;stroke-width:2.13;stroke-linejoin:round;stroke-miterlimit:10;}
	.st75{fill:none;stroke:#21908C;stroke-width:0.71;stroke-linecap:round;stroke-linejoin:round;stroke-miterlimit:10;}
	.st76{fill:none;stroke:#21908C;stroke-width:2.13;stroke-linejoin:round;stroke-miterlimit:10;}
	.st77{fill:none;stroke:#FDE725;stroke-width:0.71;stroke-linecap:round;stroke-linejoin:round;stroke-miterlimit:10;}
	.st78{fill:none;stroke:#FDE725;stroke-width:2.13;stroke-linejoin:round;stroke-miterlimit:10;}
	.st79{fill:none;stroke:#000000;stroke-width:0.71;stroke-linecap:round;stroke-linejoin:round;stroke-miterlimit:10;}
</style>
<g>
	<defs>
		<rect id="SVGID_1_" width="504" height="504"/>
	</defs>
	<clipPath id="SVGID_2_">
		<use xlink:href="#SVGID_1_"  style="overflow:visible;"/>
	</clipPath>
	<rect class="st0" width="504" height="504"/>
	<rect class="st1" width="504" height="504"/>
</g>
<g>
	<defs>
		<rect id="SVGID_3_" x="31.08" y="41.3" width="155.15" height="194.08"/>
	</defs>
	<clipPath id="SVGID_4_">
		<use xlink:href="#SVGID_3_"  style="overflow:visible;"/>
	</clipPath>
	<rect x="31.08" y="41.3" class="st2" width="155.15" height="194.08"/>
	<g class="st3">
		<text transform="matrix(1 0 0 1 35.3999 178.4399)" class="st4 st5 st6">●</text>
	</g>
	<g class="st3">
		<text transform="matrix(1 0 0 1 35.3999 143.5)" class="st7 st5 st6">●</text>
	</g>
	<g class="st3">
		<text transform="matrix(1 0 0 1 35.3999 99.4502)" class="st8 st5 st6">●</text>
	</g>
	<polygon class="st9" points="179.17,46.25 182.52,52.06 175.82,52.06 	"/>
	<polygon class="st10" points="179.17,51.2 182.52,57 175.82,57 	"/>
	<polygon class="st11" points="179.17,51.2 182.52,57 175.82,57 	"/>
	<rect x="163.24" y="111.43" class="st9" width="4.98" height="4.98"/>
	<rect x="163.24" y="111.43" class="st10" width="4.98" height="4.98"/>
	<rect x="163.24" y="68.74" class="st11" width="4.98" height="4.98"/>
	<line class="st12" x1="142.74" y1="226.56" x2="149.78" y2="226.56"/>
	<line class="st12" x1="146.26" y1="230.08" x2="146.26" y2="223.04"/>
	<line class="st13" x1="142.74" y1="138.23" x2="149.78" y2="138.23"/>
	<line class="st13" x1="146.26" y1="141.75" x2="146.26" y2="134.72"/>
	<line class="st14" x1="142.74" y1="104.96" x2="149.78" y2="104.96"/>
	<line class="st14" x1="146.26" y1="108.48" x2="146.26" y2="101.44"/>
	<polyline class="st15" points="38.13,149.98 39.92,149.26 41.7,148.54 43.49,147.82 45.27,147.1 47.06,146.39 48.84,145.67 
		50.63,144.95 52.41,144.23 54.2,143.51 55.98,142.79 57.77,142.08 59.56,141.36 61.34,140.64 63.13,139.92 64.91,139.2 
		66.7,138.49 68.48,137.77 70.27,137.05 72.05,136.33 73.84,135.61 75.62,134.89 77.41,134.18 79.19,133.46 80.98,132.74 
		82.76,132.02 84.55,131.3 86.34,130.58 88.12,129.87 89.91,129.15 91.69,128.43 93.48,127.71 95.26,126.99 97.05,126.27 
		98.83,125.56 100.62,124.84 102.4,124.12 104.19,123.4 105.97,122.68 107.76,121.97 109.54,121.25 111.33,120.53 113.12,119.81 
		114.9,119.09 116.69,118.37 118.47,117.66 120.26,116.94 122.04,116.22 123.83,115.5 125.61,114.78 127.4,114.06 129.18,113.35 
		130.97,112.63 132.75,111.91 134.54,111.19 136.33,110.47 138.11,109.75 139.9,109.04 141.68,108.32 143.47,107.6 145.25,106.88 
		147.04,106.16 148.82,105.45 150.61,104.73 152.39,104.01 154.18,103.29 155.96,102.57 157.75,101.85 159.53,101.14 161.32,100.42 
		163.11,99.7 164.89,98.98 166.68,98.26 168.46,97.54 170.25,96.83 172.03,96.11 173.82,95.39 175.6,94.67 177.39,93.95 
		179.17,93.23 	"/>
	<polyline class="st16" points="38.13,102.77 39.92,102.38 41.7,101.99 43.49,101.6 45.27,101.2 47.06,100.81 48.84,100.42 
		50.63,100.03 52.41,99.64 54.2,99.24 55.98,98.85 57.77,98.46 59.56,98.07 61.34,97.67 63.13,97.28 64.91,96.89 66.7,96.5 
		68.48,96.1 70.27,95.71 72.05,95.32 73.84,94.93 75.62,94.54 77.41,94.14 79.19,93.75 80.98,93.36 82.76,92.97 84.55,92.57 
		86.34,92.18 88.12,91.79 89.91,91.4 91.69,91.01 93.48,90.61 95.26,90.22 97.05,89.83 98.83,89.44 100.62,89.04 102.4,88.65 
		104.19,88.26 105.97,87.87 107.76,87.47 109.54,87.08 111.33,86.69 113.12,86.3 114.9,85.91 116.69,85.51 118.47,85.12 
		120.26,84.73 122.04,84.34 123.83,83.94 125.61,83.55 127.4,83.16 129.18,82.77 130.97,82.37 132.75,81.98 134.54,81.59 
		136.33,81.2 138.11,80.81 139.9,80.41 141.68,80.02 143.47,79.63 145.25,79.24 147.04,78.84 148.82,78.45 150.61,78.06 
		152.39,77.67 154.18,77.28 155.96,76.88 157.75,76.49 159.53,76.1 161.32,75.71 163.11,75.31 164.89,74.92 166.68,74.53 
		168.46,74.14 170.25,73.74 172.03,73.35 173.82,72.96 175.6,72.57 177.39,72.18 179.17,71.78 	"/>
	<polyline class="st17" points="38.13,196.99 39.92,195.94 41.7,194.89 43.49,193.84 45.27,192.8 47.06,191.75 48.84,190.7 
		50.63,189.65 52.41,188.6 54.2,187.55 55.98,186.5 57.77,185.45 59.56,184.41 61.34,183.36 63.13,182.31 64.91,181.26 66.7,180.21 
		68.48,179.16 70.27,178.11 72.05,177.07 73.84,176.02 75.62,174.97 77.41,173.92 79.19,172.87 80.98,171.82 82.76,170.77 
		84.55,169.72 86.34,168.68 88.12,167.63 89.91,166.58 91.69,165.53 93.48,164.48 95.26,163.43 97.05,162.38 98.83,161.33 
		100.62,160.29 102.4,159.24 104.19,158.19 105.97,157.14 107.76,156.09 109.54,155.04 111.33,153.99 113.12,152.94 114.9,151.9 
		116.69,150.85 118.47,149.8 120.26,148.75 122.04,147.7 123.83,146.65 125.61,145.6 127.4,144.55 129.18,143.51 130.97,142.46 
		132.75,141.41 134.54,140.36 136.33,139.31 138.11,138.26 139.9,137.21 141.68,136.16 143.47,135.12 145.25,134.07 147.04,133.02 
		148.82,131.97 150.61,130.92 152.39,129.87 154.18,128.82 155.96,127.77 157.75,126.73 159.53,125.68 161.32,124.63 163.11,123.58 
		164.89,122.53 166.68,121.48 168.46,120.43 170.25,119.38 172.03,118.34 173.82,117.29 175.6,116.24 177.39,115.19 179.17,114.14 	
		"/>
	<g class="st3">
		<text transform="matrix(1 0 0 1 38.1299 62.0898)" class="st7 st18 st19">R</text>
	</g>
	<g class="st3">
		<text transform="matrix(1 0 0 1 46.0698 62.0898)" class="st7 st20 st19"> </text>
	</g>
	<g class="st3">
		<text transform="matrix(1 0 0 1 48.8198 62.0898)" class="st7 st21 st19">=</text>
	</g>
	<g class="st3">
		<text transform="matrix(1 0 0 1 55.25 62.0898)" class="st7 st20 st19"> </text>
	</g>
	<g class="st3">
		<text transform="matrix(1 0 0 1 58 62.0898)" class="st7 st21 st19">0.65</text>
	</g>
	<g class="st3">
		<text transform="matrix(1 0 0 1 79.3999 62.0898)" class="st7 st20 st19"> </text>
	</g>
	<g class="st3">
		<text transform="matrix(1 0 0 1 82.1499 62.0898)" class="st7 st21 st19">,</text>
	</g>
	<g class="st3">
		<text transform="matrix(1 0 0 1 85.21 62.0898)" class="st7 st20 st19"> </text>
	</g>
	<g class="st3">
		<text transform="matrix(1 0 0 1 87.96 62.0898)" class="st7 st18 st19">p</text>
	</g>
	<g class="st3">
		<text transform="matrix(1 0 0 1 94.0801 62.0898)" class="st7 st20 st19"> </text>
	</g>
	<g class="st3">
		<text transform="matrix(1 0 0 1 96.8301 62.0898)" class="st7 st21 st19">=</text>
	</g>
	<g class="st3">
		<text transform="matrix(1 0 0 1 103.25 62.0898)" class="st7 st20 st19"> </text>
	</g>
	<g class="st3">
		<text transform="matrix(1 0 0 1 106 62.0898)" class="st7 st21 st19">0.35</text>
	</g>
	<g class="st3">
		<text transform="matrix(1 0 0 1 38.1299 76.3301)" class="st8 st18 st19">R</text>
	</g>
	<g class="st3">
		<text transform="matrix(1 0 0 1 46.0698 76.3301)" class="st8 st20 st19"> </text>
	</g>
	<g class="st3">
		<text transform="matrix(1 0 0 1 48.8198 76.3301)" class="st8 st21 st19">=</text>
	</g>
	<g class="st3">
		<text transform="matrix(1 0 0 1 55.25 76.3301)" class="st8 st20 st19"> </text>
	</g>
	<g class="st3">
		<text transform="matrix(1 0 0 1 58 76.3301)" class="st8 st21 st19">0.61</text>
	</g>
	<g class="st3">
		<text transform="matrix(1 0 0 1 79.3999 76.3301)" class="st8 st20 st19"> </text>
	</g>
	<g class="st3">
		<text transform="matrix(1 0 0 1 82.1499 76.3301)" class="st8 st21 st19">,</text>
	</g>
	<g class="st3">
		<text transform="matrix(1 0 0 1 85.21 76.3301)" class="st8 st20 st19"> </text>
	</g>
	<g class="st3">
		<text transform="matrix(1 0 0 1 87.96 76.3301)" class="st8 st18 st19">p</text>
	</g>
	<g class="st3">
		<text transform="matrix(1 0 0 1 94.0801 76.3301)" class="st8 st20 st19"> </text>
	</g>
	<g class="st3">
		<text transform="matrix(1 0 0 1 96.8301 76.3301)" class="st8 st21 st19">=</text>
	</g>
	<g class="st3">
		<text transform="matrix(1 0 0 1 103.25 76.3301)" class="st8 st20 st19"> </text>
	</g>
	<g class="st3">
		<text transform="matrix(1 0 0 1 106 76.3301)" class="st8 st21 st19">0.39</text>
	</g>
	<g class="st3">
		<text transform="matrix(1 0 0 1 38.1299 90.5801)" class="st4 st18 st19">R</text>
	</g>
	<g class="st3">
		<text transform="matrix(1 0 0 1 46.0698 90.5801)" class="st4 st20 st19"> </text>
	</g>
	<g class="st3">
		<text transform="matrix(1 0 0 1 48.8198 90.5801)" class="st4 st21 st19">=</text>
	</g>
	<g class="st3">
		<text transform="matrix(1 0 0 1 55.25 90.5801)" class="st4 st20 st19"> </text>
	</g>
	<g class="st3">
		<text transform="matrix(1 0 0 1 58 90.5801)" class="st4 st21 st19">0.49</text>
	</g>
	<g class="st3">
		<text transform="matrix(1 0 0 1 79.3999 90.5801)" class="st4 st20 st19"> </text>
	</g>
	<g class="st3">
		<text transform="matrix(1 0 0 1 82.1499 90.5801)" class="st4 st21 st19">,</text>
	</g>
	<g class="st3">
		<text transform="matrix(1 0 0 1 85.21 90.5801)" class="st4 st20 st19"> </text>
	</g>
	<g class="st3">
		<text transform="matrix(1 0 0 1 87.96 90.5801)" class="st4 st18 st19">p</text>
	</g>
	<g class="st3">
		<text transform="matrix(1 0 0 1 94.0801 90.5801)" class="st4 st20 st19"> </text>
	</g>
	<g class="st3">
		<text transform="matrix(1 0 0 1 96.8301 90.5801)" class="st4 st21 st19">=</text>
	</g>
	<g class="st3">
		<text transform="matrix(1 0 0 1 103.25 90.5801)" class="st4 st20 st19"> </text>
	</g>
	<g class="st3">
		<text transform="matrix(1 0 0 1 106 90.5801)" class="st4 st21 st19">0.51</text>
	</g>
</g>
<g>
	<defs>
		<rect id="SVGID_5_" x="31.08" y="274.26" width="155.15" height="194.08"/>
	</defs>
	<clipPath id="SVGID_6_">
		<use xlink:href="#SVGID_5_"  style="overflow:visible;"/>
	</clipPath>
	<rect x="31.08" y="274.26" class="st22" width="155.15" height="194.08"/>
	<g class="st23">
		<text transform="matrix(1 0 0 1 35.3999 411.3896)" class="st4 st5 st6">●</text>
	</g>
	<g class="st23">
		<text transform="matrix(1 0 0 1 35.3999 376.46)" class="st7 st5 st6">●</text>
	</g>
	<g class="st23">
		<text transform="matrix(1 0 0 1 35.3999 332.4004)" class="st8 st5 st6">●</text>
	</g>
	<polygon class="st24" points="179.17,279.21 182.52,285.01 175.82,285.01 	"/>
	<polygon class="st25" points="179.17,284.15 182.52,289.96 175.82,289.96 	"/>
	<polygon class="st26" points="179.17,284.15 182.52,289.96 175.82,289.96 	"/>
	<rect x="112.42" y="344.39" class="st24" width="4.98" height="4.97"/>
	<rect x="112.42" y="344.39" class="st25" width="4.98" height="4.97"/>
	<rect x="112.42" y="301.7" class="st26" width="4.98" height="4.98"/>
	<line class="st27" x1="115.75" y1="459.52" x2="122.78" y2="459.52"/>
	<line class="st27" x1="119.26" y1="463.03" x2="119.26" y2="456"/>
	<line class="st28" x1="115.75" y1="371.19" x2="122.78" y2="371.19"/>
	<line class="st28" x1="119.26" y1="374.71" x2="119.26" y2="367.67"/>
	<line class="st29" x1="115.75" y1="337.91" x2="122.78" y2="337.91"/>
	<line class="st29" x1="119.26" y1="341.43" x2="119.26" y2="334.39"/>
	<polyline class="st30" points="38.13,388.11 39.92,387.08 41.7,386.06 43.49,385.03 45.27,384 47.06,382.97 48.84,381.94 
		50.63,380.91 52.41,379.88 54.2,378.85 55.98,377.82 57.77,376.8 59.56,375.77 61.34,374.74 63.13,373.71 64.91,372.68 
		66.7,371.65 68.48,370.62 70.27,369.59 72.05,368.56 73.84,367.53 75.62,366.51 77.41,365.48 79.19,364.45 80.98,363.42 
		82.76,362.39 84.55,361.36 86.34,360.33 88.12,359.3 89.91,358.27 91.69,357.25 93.48,356.22 95.26,355.19 97.05,354.16 
		98.83,353.13 100.62,352.1 102.4,351.07 104.19,350.04 105.97,349.01 107.76,347.98 109.54,346.96 111.33,345.93 113.12,344.9 
		114.9,343.87 116.69,342.84 118.47,341.81 120.26,340.78 122.04,339.75 123.83,338.72 125.61,337.7 127.4,336.67 129.18,335.64 
		130.97,334.61 132.75,333.58 134.54,332.55 136.33,331.52 138.11,330.49 139.9,329.46 141.68,328.44 143.47,327.41 145.25,326.38 
		147.04,325.35 148.82,324.32 150.61,323.29 152.39,322.26 154.18,321.23 155.96,320.2 157.75,319.17 159.53,318.15 161.32,317.12 
		163.11,316.09 164.89,315.06 166.68,314.03 168.46,313 170.25,311.97 172.03,310.94 173.82,309.91 175.6,308.89 177.39,307.86 
		179.17,306.83 	"/>
	<polyline class="st31" points="38.13,335.8 39.92,335.3 41.7,334.81 43.49,334.31 45.27,333.82 47.06,333.32 48.84,332.82 
		50.63,332.33 52.41,331.83 54.2,331.34 55.98,330.84 57.77,330.34 59.56,329.85 61.34,329.35 63.13,328.86 64.91,328.36 
		66.7,327.86 68.48,327.37 70.27,326.87 72.05,326.38 73.84,325.88 75.62,325.38 77.41,324.89 79.19,324.39 80.98,323.89 
		82.76,323.4 84.55,322.9 86.34,322.41 88.12,321.91 89.91,321.41 91.69,320.92 93.48,320.42 95.26,319.93 97.05,319.43 
		98.83,318.93 100.62,318.44 102.4,317.94 104.19,317.45 105.97,316.95 107.76,316.45 109.54,315.96 111.33,315.46 113.12,314.97 
		114.9,314.47 116.69,313.97 118.47,313.48 120.26,312.98 122.04,312.49 123.83,311.99 125.61,311.49 127.4,311 129.18,310.5 
		130.97,310.01 132.75,309.51 134.54,309.01 136.33,308.52 138.11,308.02 139.9,307.52 141.68,307.03 143.47,306.53 145.25,306.04 
		147.04,305.54 148.82,305.04 150.61,304.55 152.39,304.05 154.18,303.56 155.96,303.06 157.75,302.56 159.53,302.07 161.32,301.57 
		163.11,301.08 164.89,300.58 166.68,300.08 168.46,299.59 170.25,299.09 172.03,298.6 173.82,298.1 175.6,297.6 177.39,297.11 
		179.17,296.61 	"/>
	<polyline class="st32" points="38.13,435.39 39.92,433.94 41.7,432.48 43.49,431.03 45.27,429.58 47.06,428.13 48.84,426.68 
		50.63,425.23 52.41,423.77 54.2,422.32 55.98,420.87 57.77,419.42 59.56,417.97 61.34,416.52 63.13,415.06 64.91,413.61 
		66.7,412.16 68.48,410.71 70.27,409.26 72.05,407.81 73.84,406.35 75.62,404.9 77.41,403.45 79.19,402 80.98,400.55 82.76,399.1 
		84.55,397.64 86.34,396.19 88.12,394.74 89.91,393.29 91.69,391.84 93.48,390.39 95.26,388.93 97.05,387.48 98.83,386.03 
		100.62,384.58 102.4,383.13 104.19,381.68 105.97,380.22 107.76,378.77 109.54,377.32 111.33,375.87 113.12,374.42 114.9,372.97 
		116.69,371.52 118.47,370.06 120.26,368.61 122.04,367.16 123.83,365.71 125.61,364.26 127.4,362.81 129.18,361.35 130.97,359.9 
		132.75,358.45 134.54,357 136.33,355.55 138.11,354.1 139.9,352.64 141.68,351.19 143.47,349.74 145.25,348.29 147.04,346.84 
		148.82,345.39 150.61,343.93 152.39,342.48 154.18,341.03 155.96,339.58 157.75,338.13 159.53,336.68 161.32,335.22 163.11,333.77 
		164.89,332.32 166.68,330.87 168.46,329.42 170.25,327.97 172.03,326.51 173.82,325.06 175.6,323.61 177.39,322.16 179.17,320.71 	
		"/>
	<g class="st23">
		<text transform="matrix(1 0 0 1 38.1299 295.0498)" class="st7 st18 st19">R</text>
	</g>
	<g class="st23">
		<text transform="matrix(1 0 0 1 46.0698 295.0498)" class="st7 st20 st19"> </text>
	</g>
	<g class="st23">
		<text transform="matrix(1 0 0 1 48.8198 295.0498)" class="st7 st21 st19">=</text>
	</g>
	<g class="st23">
		<text transform="matrix(1 0 0 1 55.25 295.0498)" class="st7 st20 st19"> </text>
	</g>
	<g class="st23">
		<text transform="matrix(1 0 0 1 58 295.0498)" class="st7 st21 st19">0.83</text>
	</g>
	<g class="st23">
		<text transform="matrix(1 0 0 1 79.3999 295.0498)" class="st7 st20 st19"> </text>
	</g>
	<g class="st23">
		<text transform="matrix(1 0 0 1 82.1499 295.0498)" class="st7 st21 st19">,</text>
	</g>
	<g class="st23">
		<text transform="matrix(1 0 0 1 85.21 295.0498)" class="st7 st20 st19"> </text>
	</g>
	<g class="st23">
		<text transform="matrix(1 0 0 1 87.96 295.0498)" class="st7 st18 st19">p</text>
	</g>
	<g class="st23">
		<text transform="matrix(1 0 0 1 94.0801 295.0498)" class="st7 st20 st19"> </text>
	</g>
	<g class="st23">
		<text transform="matrix(1 0 0 1 96.8301 295.0498)" class="st7 st21 st19">=</text>
	</g>
	<g class="st23">
		<text transform="matrix(1 0 0 1 103.25 295.0498)" class="st7 st20 st19"> </text>
	</g>
	<g class="st23">
		<text transform="matrix(1 0 0 1 106 295.0498)" class="st7 st21 st19">0.17</text>
	</g>
	<g class="st23">
		<text transform="matrix(1 0 0 1 38.1299 309.29)" class="st8 st18 st19">R</text>
	</g>
	<g class="st23">
		<text transform="matrix(1 0 0 1 46.0698 309.29)" class="st8 st20 st19"> </text>
	</g>
	<g class="st23">
		<text transform="matrix(1 0 0 1 48.8198 309.29)" class="st8 st21 st19">=</text>
	</g>
	<g class="st23">
		<text transform="matrix(1 0 0 1 55.25 309.29)" class="st8 st20 st19"> </text>
	</g>
	<g class="st23">
		<text transform="matrix(1 0 0 1 58 309.29)" class="st8 st21 st19">0.7</text>
	</g>
	<g class="st23">
		<text transform="matrix(1 0 0 1 73.29 309.29)" class="st8 st20 st19"> </text>
	</g>
	<g class="st23">
		<text transform="matrix(1 0 0 1 76.04 309.29)" class="st8 st21 st19">,</text>
	</g>
	<g class="st23">
		<text transform="matrix(1 0 0 1 79.0898 309.29)" class="st8 st20 st19"> </text>
	</g>
	<g class="st23">
		<text transform="matrix(1 0 0 1 81.8398 309.29)" class="st8 st18 st19">p</text>
	</g>
	<g class="st23">
		<text transform="matrix(1 0 0 1 87.96 309.29)" class="st8 st20 st19"> </text>
	</g>
	<g class="st23">
		<text transform="matrix(1 0 0 1 90.71 309.29)" class="st8 st21 st19">=</text>
	</g>
	<g class="st23">
		<text transform="matrix(1 0 0 1 97.1299 309.29)" class="st8 st20 st19"> </text>
	</g>
	<g class="st23">
		<text transform="matrix(1 0 0 1 99.8799 309.29)" class="st8 st21 st19">0.3</text>
	</g>
	<g class="st23">
		<text transform="matrix(1 0 0 1 38.1299 323.54)" class="st4 st18 st19">R</text>
	</g>
	<g class="st23">
		<text transform="matrix(1 0 0 1 46.0698 323.54)" class="st4 st20 st19"> </text>
	</g>
	<g class="st23">
		<text transform="matrix(1 0 0 1 48.8198 323.54)" class="st4 st21 st19">=</text>
	</g>
	<g class="st23">
		<text transform="matrix(1 0 0 1 55.25 323.54)" class="st4 st20 st19"> </text>
	</g>
	<g class="st23">
		<text transform="matrix(1 0 0 1 58 323.54)" class="st4 st21 st19">0.61</text>
	</g>
	<g class="st23">
		<text transform="matrix(1 0 0 1 79.3999 323.54)" class="st4 st20 st19"> </text>
	</g>
	<g class="st23">
		<text transform="matrix(1 0 0 1 82.1499 323.54)" class="st4 st21 st19">,</text>
	</g>
	<g class="st23">
		<text transform="matrix(1 0 0 1 85.21 323.54)" class="st4 st20 st19"> </text>
	</g>
	<g class="st23">
		<text transform="matrix(1 0 0 1 87.96 323.54)" class="st4 st18 st19">p</text>
	</g>
	<g class="st23">
		<text transform="matrix(1 0 0 1 94.0801 323.54)" class="st4 st20 st19"> </text>
	</g>
	<g class="st23">
		<text transform="matrix(1 0 0 1 96.8301 323.54)" class="st4 st21 st19">=</text>
	</g>
	<g class="st23">
		<text transform="matrix(1 0 0 1 103.25 323.54)" class="st4 st20 st19"> </text>
	</g>
	<g class="st23">
		<text transform="matrix(1 0 0 1 106 323.54)" class="st4 st21 st19">0.39</text>
	</g>
</g>
<g>
	<defs>
		<rect id="SVGID_7_" x="203.31" y="41.3" width="155.15" height="194.08"/>
	</defs>
	<clipPath id="SVGID_8_">
		<use xlink:href="#SVGID_7_"  style="overflow:visible;"/>
	</clipPath>
	<rect x="203.31" y="41.3" class="st33" width="155.15" height="194.08"/>
	<g class="st34">
		<text transform="matrix(1 0 0 1 299.4902 179.6001)" class="st4 st5 st6">●</text>
	</g>
	<g class="st34">
		<text transform="matrix(1 0 0 1 299.4902 145.46)" class="st7 st5 st6">●</text>
	</g>
	<g class="st34">
		<text transform="matrix(1 0 0 1 299.4902 102.4199)" class="st8 st5 st6">●</text>
	</g>
	<polygon class="st35" points="210.36,50.3 213.71,56.11 207.01,56.11 	"/>
	<polygon class="st36" points="210.36,55.14 213.71,60.94 207.01,60.94 	"/>
	<polygon class="st37" points="210.36,55.14 213.71,60.94 207.01,60.94 	"/>
	<rect x="312.16" y="114.02" class="st35" width="4.97" height="4.97"/>
	<rect x="312.16" y="114.02" class="st36" width="4.97" height="4.97"/>
	<rect x="312.16" y="72.31" class="st37" width="4.97" height="4.98"/>
	<line class="st38" x1="347.88" y1="226.56" x2="354.92" y2="226.56"/>
	<line class="st38" x1="351.4" y1="230.08" x2="351.4" y2="223.04"/>
	<line class="st39" x1="347.88" y1="140.26" x2="354.92" y2="140.26"/>
	<line class="st39" x1="351.4" y1="143.78" x2="351.4" y2="136.74"/>
	<line class="st40" x1="347.88" y1="107.75" x2="354.92" y2="107.75"/>
	<line class="st40" x1="351.4" y1="111.27" x2="351.4" y2="104.23"/>
	<polyline class="st41" points="210.36,64.71 212.15,65.77 213.93,66.83 215.72,67.89 217.5,68.94 219.29,70 221.07,71.06 
		222.86,72.12 224.64,73.18 226.43,74.24 228.21,75.3 230,76.36 231.78,77.42 233.57,78.48 235.36,79.54 237.14,80.59 238.93,81.65 
		240.71,82.71 242.5,83.77 244.28,84.83 246.07,85.89 247.85,86.95 249.64,88.01 251.42,89.07 253.21,90.13 254.99,91.18 
		256.78,92.24 258.57,93.3 260.35,94.36 262.14,95.42 263.92,96.48 265.71,97.54 267.49,98.6 269.28,99.66 271.06,100.72 
		272.85,101.78 274.63,102.83 276.42,103.89 278.2,104.95 279.99,106.01 281.77,107.07 283.56,108.13 285.35,109.19 287.13,110.25 
		288.92,111.31 290.7,112.37 292.49,113.42 294.27,114.48 296.06,115.54 297.84,116.6 299.63,117.66 301.41,118.72 303.2,119.78 
		304.98,120.84 306.77,121.9 308.55,122.96 310.34,124.01 312.13,125.07 313.91,126.13 315.7,127.19 317.48,128.25 319.27,129.31 
		321.05,130.37 322.84,131.43 324.62,132.49 326.41,133.55 328.19,134.61 329.98,135.66 331.76,136.72 333.55,137.78 335.34,138.84 
		337.12,139.9 338.91,140.96 340.69,142.02 342.48,143.08 344.26,144.14 346.05,145.2 347.83,146.25 349.62,147.31 351.4,148.37 	
		"/>
	<polyline class="st42" points="210.36,58.88 212.15,59.44 213.93,60 215.72,60.56 217.5,61.12 219.29,61.69 221.07,62.25 
		222.86,62.81 224.64,63.37 226.43,63.93 228.21,64.49 230,65.06 231.78,65.62 233.57,66.18 235.36,66.74 237.14,67.3 238.93,67.86 
		240.71,68.43 242.5,68.99 244.28,69.55 246.07,70.11 247.85,70.67 249.64,71.23 251.42,71.8 253.21,72.36 254.99,72.92 
		256.78,73.48 258.57,74.04 260.35,74.6 262.14,75.16 263.92,75.73 265.71,76.29 267.49,76.85 269.28,77.41 271.06,77.97 
		272.85,78.53 274.63,79.1 276.42,79.66 278.2,80.22 279.99,80.78 281.77,81.34 283.56,81.9 285.35,82.47 287.13,83.03 
		288.92,83.59 290.7,84.15 292.49,84.71 294.27,85.27 296.06,85.84 297.84,86.4 299.63,86.96 301.41,87.52 303.2,88.08 
		304.98,88.64 306.77,89.21 308.55,89.77 310.34,90.33 312.13,90.89 313.91,91.45 315.7,92.01 317.48,92.58 319.27,93.14 
		321.05,93.7 322.84,94.26 324.62,94.82 326.41,95.38 328.19,95.94 329.98,96.51 331.76,97.07 333.55,97.63 335.34,98.19 
		337.12,98.75 338.91,99.31 340.69,99.88 342.48,100.44 344.26,101 346.05,101.56 347.83,102.12 349.62,102.68 351.4,103.25 	"/>
	<polyline class="st43" points="210.36,50.12 212.15,52.1 213.93,54.08 215.72,56.06 217.5,58.04 219.29,60.02 221.07,62 
		222.86,63.98 224.64,65.96 226.43,67.94 228.21,69.92 230,71.9 231.78,73.88 233.57,75.86 235.36,77.84 237.14,79.82 238.93,81.8 
		240.71,83.78 242.5,85.76 244.28,87.74 246.07,89.72 247.85,91.7 249.64,93.68 251.42,95.66 253.21,97.64 254.99,99.62 
		256.78,101.6 258.57,103.58 260.35,105.56 262.14,107.54 263.92,109.52 265.71,111.5 267.49,113.48 269.28,115.46 271.06,117.44 
		272.85,119.42 274.63,121.4 276.42,123.38 278.2,125.36 279.99,127.34 281.77,129.32 283.56,131.3 285.35,133.28 287.13,135.26 
		288.92,137.24 290.7,139.22 292.49,141.2 294.27,143.18 296.06,145.16 297.84,147.14 299.63,149.12 301.41,151.1 303.2,153.08 
		304.98,155.06 306.77,157.04 308.55,159.02 310.34,161 312.13,162.98 313.91,164.96 315.7,166.94 317.48,168.92 319.27,170.9 
		321.05,172.88 322.84,174.86 324.62,176.84 326.41,178.82 328.19,180.81 329.98,182.79 331.76,184.77 333.55,186.75 335.34,188.73 
		337.12,190.71 338.91,192.69 340.69,194.67 342.48,196.65 344.26,198.63 346.05,200.61 347.83,202.59 349.62,204.57 351.4,206.55 	
		"/>
	<g class="st34">
		<text transform="matrix(1 0 0 1 210.3599 66.1401)" class="st7 st18 st19">R</text>
	</g>
	<g class="st34">
		<text transform="matrix(1 0 0 1 218.2998 66.1401)" class="st7 st20 st19"> </text>
	</g>
	<g class="st34">
		<text transform="matrix(1 0 0 1 221.0498 66.1401)" class="st7 st21 st19">=</text>
	</g>
	<g class="st34">
		<text transform="matrix(1 0 0 1 227.48 66.1401)" class="st7 st20 st19"> </text>
	</g>
	<g class="st34">
		<text transform="matrix(1 0 0 1 230.23 66.1401)" class="st7 st20 st19">−</text>
	</g>
	<g class="st34">
		<text transform="matrix(1 0 0 1 237.79 66.1401)" class="st7 st21 st19">0.91</text>
	</g>
	<g class="st34">
		<text transform="matrix(1 0 0 1 259.2002 66.1401)" class="st7 st20 st19"> </text>
	</g>
	<g class="st34">
		<text transform="matrix(1 0 0 1 261.9502 66.1401)" class="st7 st21 st19">,</text>
	</g>
	<g class="st34">
		<text transform="matrix(1 0 0 1 265.0098 66.1401)" class="st7 st20 st19"> </text>
	</g>
	<g class="st34">
		<text transform="matrix(1 0 0 1 267.7598 66.1401)" class="st7 st18 st19">p</text>
	</g>
	<g class="st34">
		<text transform="matrix(1 0 0 1 273.8701 66.1401)" class="st7 st20 st19"> </text>
	</g>
	<g class="st34">
		<text transform="matrix(1 0 0 1 276.6201 66.1401)" class="st7 st21 st19">=</text>
	</g>
	<g class="st34">
		<text transform="matrix(1 0 0 1 283.0498 66.1401)" class="st7 st20 st19"> </text>
	</g>
	<g class="st34">
		<text transform="matrix(1 0 0 1 285.7998 66.1401)" class="st7 st21 st19">0.088</text>
	</g>
	<g class="st34">
		<text transform="matrix(1 0 0 1 210.3599 80.3901)" class="st8 st18 st19">R</text>
	</g>
	<g class="st34">
		<text transform="matrix(1 0 0 1 218.2998 80.3901)" class="st8 st20 st19"> </text>
	</g>
	<g class="st34">
		<text transform="matrix(1 0 0 1 221.0498 80.3901)" class="st8 st21 st19">=</text>
	</g>
	<g class="st34">
		<text transform="matrix(1 0 0 1 227.48 80.3901)" class="st8 st20 st19"> </text>
	</g>
	<g class="st34">
		<text transform="matrix(1 0 0 1 230.23 80.3901)" class="st8 st20 st19">−</text>
	</g>
	<g class="st34">
		<text transform="matrix(1 0 0 1 237.79 80.3901)" class="st8 st21 st19">0.84</text>
	</g>
	<g class="st34">
		<text transform="matrix(1 0 0 1 259.2002 80.3901)" class="st8 st20 st19"> </text>
	</g>
	<g class="st34">
		<text transform="matrix(1 0 0 1 261.9502 80.3901)" class="st8 st21 st19">,</text>
	</g>
	<g class="st34">
		<text transform="matrix(1 0 0 1 265.0098 80.3901)" class="st8 st20 st19"> </text>
	</g>
	<g class="st34">
		<text transform="matrix(1 0 0 1 267.7598 80.3901)" class="st8 st18 st19">p</text>
	</g>
	<g class="st34">
		<text transform="matrix(1 0 0 1 273.8701 80.3901)" class="st8 st20 st19"> </text>
	</g>
	<g class="st34">
		<text transform="matrix(1 0 0 1 276.6201 80.3901)" class="st8 st21 st19">=</text>
	</g>
	<g class="st34">
		<text transform="matrix(1 0 0 1 283.0498 80.3901)" class="st8 st20 st19"> </text>
	</g>
	<g class="st34">
		<text transform="matrix(1 0 0 1 285.7998 80.3901)" class="st8 st21 st19">0.16</text>
	</g>
	<g class="st34">
		<text transform="matrix(1 0 0 1 210.3599 94.6299)" class="st4 st18 st19">R</text>
	</g>
	<g class="st34">
		<text transform="matrix(1 0 0 1 218.2998 94.6299)" class="st4 st20 st19"> </text>
	</g>
	<g class="st34">
		<text transform="matrix(1 0 0 1 221.0498 94.6299)" class="st4 st21 st19">=</text>
	</g>
	<g class="st34">
		<text transform="matrix(1 0 0 1 227.48 94.6299)" class="st4 st20 st19"> </text>
	</g>
	<g class="st34">
		<text transform="matrix(1 0 0 1 230.23 94.6299)" class="st4 st20 st19">−</text>
	</g>
	<g class="st34">
		<text transform="matrix(1 0 0 1 237.79 94.6299)" class="st4 st21 st19">0.89</text>
	</g>
	<g class="st34">
		<text transform="matrix(1 0 0 1 259.2002 94.6299)" class="st4 st20 st19"> </text>
	</g>
	<g class="st34">
		<text transform="matrix(1 0 0 1 261.9502 94.6299)" class="st4 st21 st19">,</text>
	</g>
	<g class="st34">
		<text transform="matrix(1 0 0 1 265.0098 94.6299)" class="st4 st20 st19"> </text>
	</g>
	<g class="st34">
		<text transform="matrix(1 0 0 1 267.7598 94.6299)" class="st4 st18 st19">p</text>
	</g>
	<g class="st34">
		<text transform="matrix(1 0 0 1 273.8701 94.6299)" class="st4 st20 st19"> </text>
	</g>
	<g class="st34">
		<text transform="matrix(1 0 0 1 276.6201 94.6299)" class="st4 st21 st19">=</text>
	</g>
	<g class="st34">
		<text transform="matrix(1 0 0 1 283.0498 94.6299)" class="st4 st20 st19"> </text>
	</g>
	<g class="st34">
		<text transform="matrix(1 0 0 1 285.7998 94.6299)" class="st4 st21 st19">0.11</text>
	</g>
</g>
<g>
	<defs>
		<rect id="SVGID_9_" x="203.31" y="274.26" width="155.15" height="194.08"/>
	</defs>
	<clipPath id="SVGID_10_">
		<use xlink:href="#SVGID_9_"  style="overflow:visible;"/>
	</clipPath>
	<rect x="203.31" y="274.26" class="st44" width="155.15" height="194.08"/>
	<g class="st45">
		<text transform="matrix(1 0 0 1 331.0703 411.3896)" class="st4 st5 st6">●</text>
	</g>
	<g class="st45">
		<text transform="matrix(1 0 0 1 331.0703 376.46)" class="st7 st5 st6">●</text>
	</g>
	<g class="st45">
		<text transform="matrix(1 0 0 1 331.0703 332.4004)" class="st8 st5 st6">●</text>
	</g>
	<polygon class="st46" points="210.36,279.21 213.71,285.01 207.01,285.01 	"/>
	<polygon class="st47" points="210.36,284.15 213.71,289.96 207.01,289.96 	"/>
	<polygon class="st48" points="210.36,284.15 213.71,289.96 207.01,289.96 	"/>
	<rect x="348.91" y="344.39" class="st46" width="4.98" height="4.97"/>
	<rect x="348.91" y="344.39" class="st47" width="4.98" height="4.97"/>
	<rect x="348.91" y="301.7" class="st48" width="4.98" height="4.98"/>
	<line class="st49" x1="299.11" y1="459.52" x2="306.15" y2="459.52"/>
	<line class="st49" x1="302.63" y1="463.03" x2="302.63" y2="456"/>
	<line class="st50" x1="299.11" y1="371.19" x2="306.15" y2="371.19"/>
	<line class="st50" x1="302.63" y1="374.71" x2="302.63" y2="367.67"/>
	<line class="st51" x1="299.11" y1="337.91" x2="306.15" y2="337.91"/>
	<line class="st51" x1="302.63" y1="341.43" x2="302.63" y2="334.39"/>
	<polyline class="st52" points="210.36,297.86 212.15,298.81 213.93,299.75 215.72,300.7 217.5,301.64 219.29,302.59 221.07,303.53 
		222.86,304.47 224.64,305.42 226.43,306.36 228.21,307.31 230,308.25 231.78,309.2 233.57,310.14 235.36,311.08 237.14,312.03 
		238.93,312.97 240.71,313.92 242.5,314.86 244.28,315.81 246.07,316.75 247.85,317.69 249.64,318.64 251.42,319.58 253.21,320.53 
		254.99,321.47 256.78,322.42 258.57,323.36 260.35,324.31 262.14,325.25 263.92,326.19 265.71,327.14 267.49,328.08 269.28,329.03 
		271.06,329.97 272.85,330.92 274.63,331.86 276.42,332.8 278.2,333.75 279.99,334.69 281.77,335.64 283.56,336.58 285.35,337.53 
		287.13,338.47 288.92,339.41 290.7,340.36 292.49,341.3 294.27,342.25 296.06,343.19 297.84,344.14 299.63,345.08 301.41,346.02 
		303.2,346.97 304.98,347.91 306.77,348.86 308.55,349.8 310.34,350.75 312.13,351.69 313.91,352.64 315.7,353.58 317.48,354.52 
		319.27,355.47 321.05,356.41 322.84,357.36 324.62,358.3 326.41,359.25 328.19,360.19 329.98,361.13 331.76,362.08 333.55,363.02 
		335.34,363.97 337.12,364.91 338.91,365.86 340.69,366.8 342.48,367.74 344.26,368.69 346.05,369.63 347.83,370.58 349.62,371.52 
		351.4,372.47 	"/>
	<polyline class="st53" points="210.36,296.71 212.15,297.07 213.93,297.44 215.72,297.81 217.5,298.17 219.29,298.54 
		221.07,298.91 222.86,299.27 224.64,299.64 226.43,300.01 228.21,300.38 230,300.74 231.78,301.11 233.57,301.48 235.36,301.84 
		237.14,302.21 238.93,302.58 240.71,302.94 242.5,303.31 244.28,303.68 246.07,304.04 247.85,304.41 249.64,304.78 251.42,305.14 
		253.21,305.51 254.99,305.88 256.78,306.25 258.57,306.61 260.35,306.98 262.14,307.35 263.92,307.71 265.71,308.08 267.49,308.45 
		269.28,308.81 271.06,309.18 272.85,309.55 274.63,309.91 276.42,310.28 278.2,310.65 279.99,311.01 281.77,311.38 283.56,311.75 
		285.35,312.11 287.13,312.48 288.92,312.85 290.7,313.22 292.49,313.58 294.27,313.95 296.06,314.32 297.84,314.68 299.63,315.05 
		301.41,315.42 303.2,315.78 304.98,316.15 306.77,316.52 308.55,316.88 310.34,317.25 312.13,317.62 313.91,317.98 315.7,318.35 
		317.48,318.72 319.27,319.09 321.05,319.45 322.84,319.82 324.62,320.19 326.41,320.55 328.19,320.92 329.98,321.29 331.76,321.65 
		333.55,322.02 335.34,322.39 337.12,322.75 338.91,323.12 340.69,323.49 342.48,323.85 344.26,324.22 346.05,324.59 347.83,324.96 
		349.62,325.32 351.4,325.69 	"/>
	<polyline class="st54" points="210.36,313.04 212.15,314.27 213.93,315.5 215.72,316.74 217.5,317.97 219.29,319.2 221.07,320.43 
		222.86,321.67 224.64,322.9 226.43,324.13 228.21,325.36 230,326.6 231.78,327.83 233.57,329.06 235.36,330.29 237.14,331.53 
		238.93,332.76 240.71,333.99 242.5,335.23 244.28,336.46 246.07,337.69 247.85,338.92 249.64,340.16 251.42,341.39 253.21,342.62 
		254.99,343.85 256.78,345.09 258.57,346.32 260.35,347.55 262.14,348.79 263.92,350.02 265.71,351.25 267.49,352.48 269.28,353.72 
		271.06,354.95 272.85,356.18 274.63,357.41 276.42,358.65 278.2,359.88 279.99,361.11 281.77,362.34 283.56,363.58 285.35,364.81 
		287.13,366.04 288.92,367.28 290.7,368.51 292.49,369.74 294.27,370.97 296.06,372.21 297.84,373.44 299.63,374.67 301.41,375.9 
		303.2,377.14 304.98,378.37 306.77,379.6 308.55,380.83 310.34,382.07 312.13,383.3 313.91,384.53 315.7,385.77 317.48,387 
		319.27,388.23 321.05,389.46 322.84,390.7 324.62,391.93 326.41,393.16 328.19,394.39 329.98,395.63 331.76,396.86 333.55,398.09 
		335.34,399.32 337.12,400.56 338.91,401.79 340.69,403.02 342.48,404.26 344.26,405.49 346.05,406.72 347.83,407.95 349.62,409.19 
		351.4,410.42 	"/>
	<g class="st45">
		<text transform="matrix(1 0 0 1 210.3599 295.0498)" class="st7 st18 st19">R</text>
	</g>
	<g class="st45">
		<text transform="matrix(1 0 0 1 218.2998 295.0498)" class="st7 st20 st19"> </text>
	</g>
	<g class="st45">
		<text transform="matrix(1 0 0 1 221.0498 295.0498)" class="st7 st21 st19">=</text>
	</g>
	<g class="st45">
		<text transform="matrix(1 0 0 1 227.48 295.0498)" class="st7 st20 st19"> </text>
	</g>
	<g class="st45">
		<text transform="matrix(1 0 0 1 230.23 295.0498)" class="st7 st20 st19">−</text>
	</g>
	<g class="st45">
		<text transform="matrix(1 0 0 1 237.79 295.0498)" class="st7 st21 st19">0.83</text>
	</g>
	<g class="st45">
		<text transform="matrix(1 0 0 1 259.2002 295.0498)" class="st7 st20 st19"> </text>
	</g>
	<g class="st45">
		<text transform="matrix(1 0 0 1 261.9502 295.0498)" class="st7 st21 st19">,</text>
	</g>
	<g class="st45">
		<text transform="matrix(1 0 0 1 265.0098 295.0498)" class="st7 st20 st19"> </text>
	</g>
	<g class="st45">
		<text transform="matrix(1 0 0 1 267.7598 295.0498)" class="st7 st18 st19">p</text>
	</g>
	<g class="st45">
		<text transform="matrix(1 0 0 1 273.8701 295.0498)" class="st7 st20 st19"> </text>
	</g>
	<g class="st45">
		<text transform="matrix(1 0 0 1 276.6201 295.0498)" class="st7 st21 st19">=</text>
	</g>
	<g class="st45">
		<text transform="matrix(1 0 0 1 283.0498 295.0498)" class="st7 st20 st19"> </text>
	</g>
	<g class="st45">
		<text transform="matrix(1 0 0 1 285.7998 295.0498)" class="st7 st21 st19">0.17</text>
	</g>
	<g class="st45">
		<text transform="matrix(1 0 0 1 210.3599 309.29)" class="st8 st18 st19">R</text>
	</g>
	<g class="st45">
		<text transform="matrix(1 0 0 1 218.2998 309.29)" class="st8 st20 st19"> </text>
	</g>
	<g class="st45">
		<text transform="matrix(1 0 0 1 221.0498 309.29)" class="st8 st21 st19">=</text>
	</g>
	<g class="st45">
		<text transform="matrix(1 0 0 1 227.48 309.29)" class="st8 st20 st19"> </text>
	</g>
	<g class="st45">
		<text transform="matrix(1 0 0 1 230.23 309.29)" class="st8 st20 st19">−</text>
	</g>
	<g class="st45">
		<text transform="matrix(1 0 0 1 237.79 309.29)" class="st8 st21 st19">0.56</text>
	</g>
	<g class="st45">
		<text transform="matrix(1 0 0 1 259.2002 309.29)" class="st8 st20 st19"> </text>
	</g>
	<g class="st45">
		<text transform="matrix(1 0 0 1 261.9502 309.29)" class="st8 st21 st19">,</text>
	</g>
	<g class="st45">
		<text transform="matrix(1 0 0 1 265.0098 309.29)" class="st8 st20 st19"> </text>
	</g>
	<g class="st45">
		<text transform="matrix(1 0 0 1 267.7598 309.29)" class="st8 st18 st19">p</text>
	</g>
	<g class="st45">
		<text transform="matrix(1 0 0 1 273.8701 309.29)" class="st8 st20 st19"> </text>
	</g>
	<g class="st45">
		<text transform="matrix(1 0 0 1 276.6201 309.29)" class="st8 st21 st19">=</text>
	</g>
	<g class="st45">
		<text transform="matrix(1 0 0 1 283.0498 309.29)" class="st8 st20 st19"> </text>
	</g>
	<g class="st45">
		<text transform="matrix(1 0 0 1 285.7998 309.29)" class="st8 st21 st19">0.44</text>
	</g>
	<g class="st45">
		<text transform="matrix(1 0 0 1 210.3599 323.54)" class="st4 st18 st19">R</text>
	</g>
	<g class="st45">
		<text transform="matrix(1 0 0 1 218.2998 323.54)" class="st4 st20 st19"> </text>
	</g>
	<g class="st45">
		<text transform="matrix(1 0 0 1 221.0498 323.54)" class="st4 st21 st19">=</text>
	</g>
	<g class="st45">
		<text transform="matrix(1 0 0 1 227.48 323.54)" class="st4 st20 st19"> </text>
	</g>
	<g class="st45">
		<text transform="matrix(1 0 0 1 230.23 323.54)" class="st4 st20 st19">−</text>
	</g>
	<g class="st45">
		<text transform="matrix(1 0 0 1 237.79 323.54)" class="st4 st21 st19">0.57</text>
	</g>
	<g class="st45">
		<text transform="matrix(1 0 0 1 259.2002 323.54)" class="st4 st20 st19"> </text>
	</g>
	<g class="st45">
		<text transform="matrix(1 0 0 1 261.9502 323.54)" class="st4 st21 st19">,</text>
	</g>
	<g class="st45">
		<text transform="matrix(1 0 0 1 265.0098 323.54)" class="st4 st20 st19"> </text>
	</g>
	<g class="st45">
		<text transform="matrix(1 0 0 1 267.7598 323.54)" class="st4 st18 st19">p</text>
	</g>
	<g class="st45">
		<text transform="matrix(1 0 0 1 273.8701 323.54)" class="st4 st20 st19"> </text>
	</g>
	<g class="st45">
		<text transform="matrix(1 0 0 1 276.6201 323.54)" class="st4 st21 st19">=</text>
	</g>
	<g class="st45">
		<text transform="matrix(1 0 0 1 283.0498 323.54)" class="st4 st20 st19"> </text>
	</g>
	<g class="st45">
		<text transform="matrix(1 0 0 1 285.7998 323.54)" class="st4 st21 st19">0.43</text>
	</g>
</g>
<g>
	<defs>
		<rect id="SVGID_11_" x="31.08" y="257.05" width="155.15" height="17.21"/>
	</defs>
	<clipPath id="SVGID_12_">
		<use xlink:href="#SVGID_11_"  style="overflow:visible;"/>
	</clipPath>
</g>
<g>
	<defs>
		<rect id="SVGID_13_" x="31.08" y="257.05" width="155.15" height="17.21"/>
	</defs>
	<clipPath id="SVGID_14_">
		<use xlink:href="#SVGID_13_"  style="overflow:visible;"/>
	</clipPath>
	<rect x="31.08" y="257.05" class="st55" width="155.15" height="17.21"/>
	<rect x="31.08" y="257.05" class="st56" width="155.15" height="17.21"/>
	<g class="st57">
		<text transform="matrix(1 0 0 1 79.8901 268.8799)" class="st58 st21 st59">kraken2 DirectSM</text>
	</g>
</g>
<g>
	<defs>
		<rect id="SVGID_15_" x="31.08" y="257.05" width="155.15" height="17.21"/>
	</defs>
	<clipPath id="SVGID_16_">
		<use xlink:href="#SVGID_15_"  style="overflow:visible;"/>
	</clipPath>
</g>
<g>
	<defs>
		<rect id="SVGID_17_" x="31.08" y="257.05" width="155.15" height="17.21"/>
	</defs>
	<clipPath id="SVGID_18_">
		<use xlink:href="#SVGID_17_"  style="overflow:visible;"/>
	</clipPath>
</g>
<g>
	<defs>
		<rect id="SVGID_19_" x="203.31" y="257.05" width="155.15" height="17.21"/>
	</defs>
	<clipPath id="SVGID_20_">
		<use xlink:href="#SVGID_19_"  style="overflow:visible;"/>
	</clipPath>
</g>
<g>
	<defs>
		<rect id="SVGID_21_" x="203.31" y="257.05" width="155.15" height="17.21"/>
	</defs>
	<clipPath id="SVGID_22_">
		<use xlink:href="#SVGID_21_"  style="overflow:visible;"/>
	</clipPath>
	<rect x="203.31" y="257.05" class="st60" width="155.15" height="17.21"/>
	<rect x="203.31" y="257.05" class="st61" width="155.15" height="17.21"/>
	<g class="st62">
		<text transform="matrix(1 0 0 1 255.3701 268.8799)" class="st58 st21 st59">kraken2 SM</text>
	</g>
</g>
<g>
	<defs>
		<rect id="SVGID_23_" x="203.31" y="257.05" width="155.15" height="17.21"/>
	</defs>
	<clipPath id="SVGID_24_">
		<use xlink:href="#SVGID_23_"  style="overflow:visible;"/>
	</clipPath>
</g>
<g>
	<defs>
		<rect id="SVGID_25_" x="203.31" y="257.05" width="155.15" height="17.21"/>
	</defs>
	<clipPath id="SVGID_26_">
		<use xlink:href="#SVGID_25_"  style="overflow:visible;"/>
	</clipPath>
</g>
<g>
	<defs>
		<rect id="SVGID_27_" x="31.08" y="24.09" width="155.15" height="17.21"/>
	</defs>
	<clipPath id="SVGID_28_">
		<use xlink:href="#SVGID_27_"  style="overflow:visible;"/>
	</clipPath>
</g>
<g>
	<defs>
		<rect id="SVGID_29_" x="31.08" y="24.09" width="155.15" height="17.21"/>
	</defs>
	<clipPath id="SVGID_30_">
		<use xlink:href="#SVGID_29_"  style="overflow:visible;"/>
	</clipPath>
	<rect x="31.08" y="24.09" class="st63" width="155.15" height="17.21"/>
	<rect x="31.08" y="24.09" class="st64" width="155.15" height="17.21"/>
	<g class="st65">
		<text transform="matrix(1 0 0 1 86.1499 35.9302)" class="st58 st21 st59">CPM DirectSM</text>
	</g>
</g>
<g>
	<defs>
		<rect id="SVGID_31_" x="31.08" y="24.09" width="155.15" height="17.21"/>
	</defs>
	<clipPath id="SVGID_32_">
		<use xlink:href="#SVGID_31_"  style="overflow:visible;"/>
	</clipPath>
</g>
<g>
	<defs>
		<rect id="SVGID_33_" x="31.08" y="24.09" width="155.15" height="17.21"/>
	</defs>
	<clipPath id="SVGID_34_">
		<use xlink:href="#SVGID_33_"  style="overflow:visible;"/>
	</clipPath>
</g>
<g>
	<defs>
		<rect id="SVGID_35_" x="203.31" y="24.09" width="155.15" height="17.21"/>
	</defs>
	<clipPath id="SVGID_36_">
		<use xlink:href="#SVGID_35_"  style="overflow:visible;"/>
	</clipPath>
</g>
<g>
	<defs>
		<rect id="SVGID_37_" x="203.31" y="24.09" width="155.15" height="17.21"/>
	</defs>
	<clipPath id="SVGID_38_">
		<use xlink:href="#SVGID_37_"  style="overflow:visible;"/>
	</clipPath>
	<rect x="203.31" y="24.09" class="st66" width="155.15" height="17.21"/>
	<rect x="203.31" y="24.09" class="st67" width="155.15" height="17.21"/>
	<g class="st68">
		<text transform="matrix(1 0 0 1 261.6299 35.9302)" class="st58 st21 st59">CPM SM</text>
	</g>
</g>
<g>
	<defs>
		<rect id="SVGID_39_" x="203.31" y="24.09" width="155.15" height="17.21"/>
	</defs>
	<clipPath id="SVGID_40_">
		<use xlink:href="#SVGID_39_"  style="overflow:visible;"/>
	</clipPath>
</g>
<g>
	<defs>
		<rect id="SVGID_41_" x="203.31" y="24.09" width="155.15" height="17.21"/>
	</defs>
	<clipPath id="SVGID_42_">
		<use xlink:href="#SVGID_41_"  style="overflow:visible;"/>
	</clipPath>
</g>
<line class="st69" x1="31.08" y1="468.34" x2="186.23" y2="468.34"/>
<line class="st70" x1="42.34" y1="471.08" x2="42.34" y2="468.34"/>
<line class="st70" x1="77.97" y1="471.08" x2="77.97" y2="468.34"/>
<line class="st70" x1="113.6" y1="471.08" x2="113.6" y2="468.34"/>
<line class="st70" x1="149.24" y1="471.08" x2="149.24" y2="468.34"/>
<line class="st70" x1="184.87" y1="471.08" x2="184.87" y2="468.34"/>
<text transform="matrix(1 0 0 1 27.1602 481.8799)" class="st21 st71">−16.5</text>
<text transform="matrix(1 0 0 1 62.79 481.8799)" class="st21 st71">−16.0</text>
<text transform="matrix(1 0 0 1 98.4199 481.8799)" class="st21 st71">−15.5</text>
<text transform="matrix(1 0 0 1 134.0601 481.8799)" class="st21 st71">−15.0</text>
<text transform="matrix(1 0 0 1 169.6899 481.8799)" class="st21 st71">−14.5</text>
<line class="st69" x1="203.31" y1="468.34" x2="358.46" y2="468.34"/>
<line class="st70" x1="213.53" y1="471.08" x2="213.53" y2="468.34"/>
<line class="st70" x1="243.23" y1="471.08" x2="243.23" y2="468.34"/>
<line class="st70" x1="272.93" y1="471.08" x2="272.93" y2="468.34"/>
<line class="st70" x1="302.63" y1="471.08" x2="302.63" y2="468.34"/>
<line class="st70" x1="332.33" y1="471.08" x2="332.33" y2="468.34"/>
<text transform="matrix(1 0 0 1 198.3501 481.8799)" class="st21 st71">−18.0</text>
<text transform="matrix(1 0 0 1 228.0498 481.8799)" class="st21 st71">−17.5</text>
<text transform="matrix(1 0 0 1 257.75 481.8799)" class="st21 st71">−17.0</text>
<text transform="matrix(1 0 0 1 287.4502 481.8799)" class="st21 st71">−16.5</text>
<text transform="matrix(1 0 0 1 317.1504 481.8799)" class="st21 st71">−16.0</text>
<line class="st69" x1="31.08" y1="235.38" x2="186.23" y2="235.38"/>
<line class="st70" x1="57.23" y1="238.12" x2="57.23" y2="235.38"/>
<line class="st70" x1="96" y1="238.12" x2="96" y2="235.38"/>
<line class="st70" x1="134.77" y1="238.12" x2="134.77" y2="235.38"/>
<line class="st70" x1="173.54" y1="238.12" x2="173.54" y2="235.38"/>
<text transform="matrix(1 0 0 1 48.8901 248.9302)" class="st21 st71">7.5</text>
<text transform="matrix(1 0 0 1 87.6602 248.9302)" class="st21 st71">8.0</text>
<text transform="matrix(1 0 0 1 126.4302 248.9302)" class="st21 st71">8.5</text>
<text transform="matrix(1 0 0 1 165.2002 248.9302)" class="st21 st71">9.0</text>
<line class="st69" x1="203.31" y1="235.38" x2="358.46" y2="235.38"/>
<line class="st70" x1="205.94" y1="238.12" x2="205.94" y2="235.38"/>
<line class="st70" x1="235.6" y1="238.12" x2="235.6" y2="235.38"/>
<line class="st70" x1="265.26" y1="238.12" x2="265.26" y2="235.38"/>
<line class="st70" x1="294.93" y1="238.12" x2="294.93" y2="235.38"/>
<line class="st70" x1="324.59" y1="238.12" x2="324.59" y2="235.38"/>
<line class="st70" x1="354.26" y1="238.12" x2="354.26" y2="235.38"/>
<text transform="matrix(1 0 0 1 197.6001 248.9302)" class="st21 st71">6.0</text>
<text transform="matrix(1 0 0 1 227.2598 248.9302)" class="st21 st71">6.5</text>
<text transform="matrix(1 0 0 1 256.9199 248.9302)" class="st21 st71">7.0</text>
<text transform="matrix(1 0 0 1 286.5898 248.9302)" class="st21 st71">7.5</text>
<text transform="matrix(1 0 0 1 316.25 248.9302)" class="st21 st71">8.0</text>
<text transform="matrix(1 0 0 1 345.9199 248.9302)" class="st21 st71">8.5</text>
<line class="st69" x1="203.31" y1="235.38" x2="203.31" y2="41.3"/>
<text transform="matrix(1 0 0 1 191.7002 209.3301)" class="st21 st71">2</text>
<text transform="matrix(1 0 0 1 191.7002 157.4399)" class="st21 st71">3</text>
<text transform="matrix(1 0 0 1 191.7002 105.54)" class="st21 st71">4</text>
<text transform="matrix(1 0 0 1 191.7002 53.6499)" class="st21 st71">5</text>
<line class="st70" x1="200.57" y1="205.02" x2="203.31" y2="205.02"/>
<line class="st70" x1="200.57" y1="153.13" x2="203.31" y2="153.13"/>
<line class="st70" x1="200.57" y1="101.23" x2="203.31" y2="101.23"/>
<line class="st70" x1="200.57" y1="49.34" x2="203.31" y2="49.34"/>
<line class="st69" x1="203.31" y1="468.34" x2="203.31" y2="274.26"/>
<text transform="matrix(1 0 0 1 191.7002 441.7803)" class="st21 st71">2</text>
<text transform="matrix(1 0 0 1 191.7002 388.6699)" class="st21 st71">3</text>
<text transform="matrix(1 0 0 1 191.7002 335.5498)" class="st21 st71">4</text>
<text transform="matrix(1 0 0 1 191.7002 282.4404)" class="st21 st71">5</text>
<line class="st70" x1="200.57" y1="437.47" x2="203.31" y2="437.47"/>
<line class="st70" x1="200.57" y1="384.36" x2="203.31" y2="384.36"/>
<line class="st70" x1="200.57" y1="331.25" x2="203.31" y2="331.25"/>
<line class="st70" x1="200.57" y1="278.13" x2="203.31" y2="278.13"/>
<line class="st69" x1="31.08" y1="235.38" x2="31.08" y2="41.3"/>
<text transform="matrix(1 0 0 1 19.48 208.8198)" class="st21 st71">2</text>
<text transform="matrix(1 0 0 1 19.48 155.71)" class="st21 st71">3</text>
<text transform="matrix(1 0 0 1 19.48 102.6001)" class="st21 st71">4</text>
<text transform="matrix(1 0 0 1 19.48 49.48)" class="st21 st71">5</text>
<line class="st70" x1="28.34" y1="204.51" x2="31.08" y2="204.51"/>
<line class="st70" x1="28.34" y1="151.4" x2="31.08" y2="151.4"/>
<line class="st70" x1="28.34" y1="98.29" x2="31.08" y2="98.29"/>
<line class="st70" x1="28.34" y1="45.18" x2="31.08" y2="45.18"/>
<line class="st69" x1="31.08" y1="468.34" x2="31.08" y2="274.26"/>
<text transform="matrix(1 0 0 1 19.48 441.7803)" class="st21 st71">2</text>
<text transform="matrix(1 0 0 1 19.48 388.6699)" class="st21 st71">3</text>
<text transform="matrix(1 0 0 1 19.48 335.5498)" class="st21 st71">4</text>
<text transform="matrix(1 0 0 1 19.48 282.4404)" class="st21 st71">5</text>
<line class="st70" x1="28.34" y1="437.47" x2="31.08" y2="437.47"/>
<line class="st70" x1="28.34" y1="384.36" x2="31.08" y2="384.36"/>
<line class="st70" x1="28.34" y1="331.25" x2="31.08" y2="331.25"/>
<line class="st70" x1="28.34" y1="278.13" x2="31.08" y2="278.13"/>
<text transform="matrix(1 0 0 1 117.5898 495.8799)"><tspan x="0" y="0" class="st21 st71">No</tspan><tspan x="15.34" y="0" class="st21 st71">r</tspan><tspan x="19.62" y="0" class="st21 st71">malised reads count (log)</tspan></text>
<text transform="matrix(-6.123234e-17 -1 1 -6.123234e-17 14.1001 313.5796)"><tspan x="0" y="0" class="st21 st71">V</tspan><tspan x="7.18" y="0" class="st21 st71">arroa count/d</tspan><tspan x="77.89" y="0" class="st21 st71">a</tspan><tspan x="84.2" y="0" class="st21 st71">y (log)</tspan></text>
<rect x="369.41" y="172.42" class="st72" width="129.11" height="68.28"/>
<text transform="matrix(1 0 0 1 380.7998 194.4102)" class="st7 st5 st6">●</text>
<text transform="matrix(1 0 0 1 380.7998 194.4102)" class="st73 st5 st6">●</text>
<line class="st74" x1="376.62" y1="192.02" x2="390.45" y2="192.02"/>
<text transform="matrix(1 0 0 1 380.4805 195.9702)" class="st7 st21 st19">a</text>
<text transform="matrix(1 0 0 1 380.7998 211.6899)" class="st8 st5 st6">●</text>
<text transform="matrix(1 0 0 1 380.7998 211.6899)" class="st75 st5 st6">●</text>
<line class="st76" x1="376.62" y1="209.3" x2="390.45" y2="209.3"/>
<text transform="matrix(1 0 0 1 380.4805 213.25)" class="st8 st21 st19">a</text>
<text transform="matrix(1 0 0 1 380.7998 228.9702)" class="st4 st5 st6">●</text>
<text transform="matrix(1 0 0 1 380.7998 228.9702)" class="st77 st5 st6">●</text>
<line class="st78" x1="376.62" y1="226.58" x2="390.45" y2="226.58"/>
<text transform="matrix(1 0 0 1 380.4805 230.5298)" class="st4 st21 st19">a</text>
<text transform="matrix(1 0 0 1 397.6504 196.3301)"><tspan x="0" y="0" class="st21 st71">a</tspan><tspan x="6.43" y="0" class="st21 st71">v</tspan><tspan x="12.13" y="0" class="st21 st71">e</tspan><tspan x="18.81" y="0" class="st21 st71">r</tspan><tspan x="22.68" y="0" class="st21 st71">age 1 month</tspan></text>
<text transform="matrix(1 0 0 1 397.6504 213.6099)"><tspan x="0" y="0" class="st21 st71">a</tspan><tspan x="6.43" y="0" class="st21 st71">v</tspan><tspan x="12.13" y="0" class="st21 st71">e</tspan><tspan x="18.81" y="0" class="st21 st71">r</tspan><tspan x="22.68" y="0" class="st21 st71">age 2 months</tspan></text>
<text transform="matrix(1 0 0 1 397.6504 230.8901)"><tspan x="0" y="0" class="st21 st71">a</tspan><tspan x="6.43" y="0" class="st21 st71">v</tspan><tspan x="12.13" y="0" class="st21 st71">e</tspan><tspan x="18.81" y="0" class="st21 st71">r</tspan><tspan x="22.68" y="0" class="st21 st71">age 2 </tspan><tspan x="56.05" y="0" class="st21 st71">w</tspan><tspan x="64.59" y="0" class="st21 st71">eeks</tspan></text>
<rect x="369.41" y="251.66" class="st72" width="49.05" height="85.56"/>
<text transform="matrix(1 0 0 1 380.7998 273.6504)" class="st5 st6">●</text>
<polygon points="383.53,284.67 386.88,290.47 380.18,290.47 "/>
<rect x="381.05" y="303.33" width="4.97" height="4.98"/>
<line class="st79" x1="380.01" y1="323.1" x2="387.05" y2="323.1"/>
<line class="st79" x1="383.53" y1="326.62" x2="383.53" y2="319.58"/>
<text transform="matrix(1 0 0 1 397.6504 275.5703)" class="st21 st71">H4</text>
<text transform="matrix(1 0 0 1 397.6504 292.8496)" class="st21 st71">H5</text>
<text transform="matrix(1 0 0 1 397.6504 310.1299)" class="st21 st71">H6</text>
<text transform="matrix(1 0 0 1 397.6504 327.4102)" class="st21 st71">H7</text>
</svg>
